<svg id="レイヤー_1" data-name="レイヤー 1" xmlns="http://www.w3.org/2000/svg" viewBox="0 0 1920 1080"><defs><style>.cls-1{fill:none;}.cls-2{fill:#f0f;}.cls-3{fill:#4064ff;}</style></defs><rect class="cls-1" width="1920" height="1080"/><path class="cls-1" d="M444,841a0,0,0,0,1,0,0v0Z" transform="translate(510 90)"/><path class="cls-1" d="M294.51,439.78v.84c0-.65,0-1.29,0-1.93C294.53,439.05,294.51,439.41,294.51,439.78Z" transform="translate(510 90)"/><path class="cls-2" d="M444.5,591.5c1.1,0,2.19,0,3.29,0-1.1,0-2.19,0-3.29,0Z" transform="translate(510 90)"/><path class="cls-3" d="M447.79,591.46c-1.1,0-2.19,0-3.29,0h0c1.1,0,2.19,0,3.29,0Z" transform="translate(510 90)"/><path class="cls-3" d="M443.5,841A399.6,399.6,0,0,1,282.78,76.39,394.25,394.25,0,0,1,444.52,42c6.72,0,13.55.17,20.29.51C655.25,52,813,195.88,840,384.51a27.43,27.43,0,0,1-6.47,21.89,27.81,27.81,0,0,1-21,9.6H621.08a36.9,36.9,0,0,1-34.66-24.66l-.55-1.54c-.22-.6-.45-1.21-.68-1.81l-.45-1.17c-.23-.59-.46-1.17-.7-1.75l-.47-1.17c-.25-.58-.49-1.17-.74-1.75l-.49-1.12c-.27-.62-.55-1.23-.83-1.85l-.44-1c-.36-.77-.73-1.54-1.1-2.31l-.23-.48c-.46-.93-.92-1.85-1.39-2.77l-.41-.77c-.34-.66-.69-1.31-1-2l-.55-1c-.31-.57-.63-1.13-1-1.7l-.62-1.07c-.31-.54-.62-1.07-.94-1.6l-.64-1.08-1-1.59-.65-1-1.06-1.64-.62-.94c-.42-.64-.86-1.28-1.3-1.92l-.42-.62c-.58-.84-1.18-1.67-1.78-2.5l-.43-.59c-.46-.63-.92-1.25-1.4-1.87l-.67-.88-1.2-1.55-.76-.95c-.39-.49-.78-1-1.18-1.45l-.79-1-1.2-1.41-.81-.93c-.42-.49-.84-1-1.27-1.44l-.76-.86-1.48-1.59-.6-.65c-.71-.74-1.41-1.48-2.13-2.2l-.32-.33c-.62-.61-1.23-1.23-1.85-1.83l-.76-.73-1.46-1.39-.87-.81-1.39-1.26-.93-.83-1.39-1.22-1-.8c-.48-.41-1-.82-1.45-1.22l-.91-.75-1.62-1.29-.77-.62q-1.21-.94-2.43-1.86c-.83-.61-1.65-1.22-2.48-1.81l-.81-.57-1.7-1.2-1-.66c-.52-.35-1-.71-1.57-1.05l-1-.68-1.56-1-1.06-.66-1.62-1-1-.62-1.75-1-.93-.54-2.24-1.23-.46-.25c-.91-.48-1.82-1-2.74-1.43l-.79-.39-2-1-1-.5-1.76-.82-1.13-.51-1.72-.76-1.16-.49-1.75-.73-1.15-.46c-.61-.25-1.23-.48-1.85-.72l-1.06-.41-2.21-.8-.73-.26c-1-.35-2-.68-3-1l-.72-.23c-.75-.25-1.51-.49-2.27-.72l-1.09-.32-1.93-.56-1.21-.33-1.85-.49-1.25-.32-1.85-.45-1.25-.29L476,294.3l-1.18-.25-2.21-.43-.91-.17q-1.57-.3-3.15-.54l-.51-.08-2.66-.4-1.1-.14-2.09-.26-1.27-.14-2-.2-1.31-.12-1.95-.16-1.32-.09-2-.11-1.26-.07-2.2-.07-1.08,0c-1.09,0-2.19,0-3.29,0-1.29,0-2.58,0-3.87.05l-1.78.06-2.07.08-.94.06-1.08.07-1.8.12c-.35,0-.69.05-1,.09l-1.15.1-1.6.14-1.07.12-1.22.14-1.48.17-1.13.16-1.13.15-1.48.21-1.15.19-1.11.18-1.45.25-1.14.21-1.13.22-1.41.27-1.14.24-1.06.23-1.45.32-1.16.28-1.08.26-1.37.34-1.18.31-1.07.29-1.32.36-1.15.34-1.05.31-1.35.4-1.17.38-1,.32-1.34.44-1.15.4-1,.35-1.3.46-1.13.43-1,.39-1.28.48-1.15.47-1,.4-1.23.51-1.16.5-.92.4-1.27.56-1.15.53-.92.43-1.23.57-1.16.57-.9.45-1.2.6-1.13.59-.86.45-1.22.65-1.14.62-.79.44-1.24.7c-.38.21-.75.43-1.11.65l-.83.49-1.18.7-1.13.69-.75.47-1.19.75-1.08.7-.77.5-1.18.78-1.05.72-.74.51-1.18.82c-.36.25-.72.52-1.07.78l-.74.53-1.1.81c-.35.25-.69.52-1,.78l-.66.5-1.18.9-1.06.85-.67.54-1.08.87-1,.85-.64.54-1.09.92-1.07.94-.53.47-1.1,1-1,.94-.58.53-1,1-.95.92-.56.55-1.07,1-1,1-.48.48-1,1.06q-.5.51-1,1.05l-.45.48c-.35.36-.69.73-1,1.1s-.63.69-.94,1l-.47.53-1,1.11-1,1.17-.34.4-1,1.17c-.32.38-.63.77-.94,1.15l-.31.39-1,1.26-.91,1.17-.28.37c-.34.44-.68.87-1,1.32l-.92,1.24-.27.36-.95,1.3-.88,1.26-.26.38-.92,1.32c-.29.42-.57.84-.85,1.27l-.27.41c-.29.44-.59.88-.88,1.33s-.54.86-.82,1.29l-.25.4-.85,1.37-.81,1.34-.11.19-.94,1.58-.8,1.42-.16.28c-.28.49-.55,1-.81,1.46s-.5.92-.75,1.39l-.1.19c-.32.59-.59,1.11-.86,1.62L310,374l-.06.12c-.28.55-.55,1.1-.82,1.65s-.52,1.08-.77,1.62-.53,1.12-.78,1.67-.46,1-.69,1.54l-.05.11c-.25.56-.5,1.12-.74,1.69l-.69,1.66c-.24.58-.48,1.15-.7,1.72l-.62,1.56,0,.12c-.22.58-.45,1.16-.66,1.74s-.41,1.12-.61,1.68-.42,1.19-.63,1.78l-.57,1.72c-.2.59-.39,1.18-.58,1.77s-.36,1.16-.53,1.75l-.54,1.79c-.17.58-.33,1.17-.49,1.75s-.33,1.21-.49,1.82-.3,1.18-.45,1.77l-.45,1.83c-.14.6-.27,1.2-.41,1.8s-.27,1.22-.4,1.84l-.36,1.81q-.19.93-.36,1.86c-.11.61-.22,1.22-.32,1.83s-.21,1.25-.31,1.87-.19,1.23-.28,1.85-.18,1.25-.26,1.88-.16,1.24-.24,1.86-.15,1.27-.21,1.91-.13,1.25-.19,1.87-.12,1.27-.17,1.92-.1,1.25-.14,1.88-.09,1.29-.12,1.93-.07,1.26-.09,1.9-.06,1.29-.08,1.95,0,1.26,0,1.9c0,0,0,.88,0,1.09v1.73c0,.22,0,1.16,0,1.16l0,1.7c0,.84,0,1.67.07,2.5l0,1.06A150.17,150.17,0,0,0,443.5,592Z" transform="translate(510 90)"/><path class="cls-3" d="M444.52,41.5v1c6.72,0,13.54.17,20.26.51A398.87,398.87,0,0,1,839.47,384.58a27,27,0,0,1-6.35,21.5,27.35,27.35,0,0,1-20.65,9.42H621.08a36.39,36.39,0,0,1-34.18-24.33l-.09-.23-.06-.18-.3-.83-.11-.3c-.23-.61-.45-1.21-.68-1.81l-.45-1.18c-.23-.59-.47-1.18-.7-1.76l-.48-1.17c-.24-.59-.49-1.17-.74-1.76l-.09-.2c-.13-.31-.27-.62-.4-.92-.27-.62-.55-1.24-.83-1.85l-.16-.35c-.1-.21-.19-.43-.29-.64-.36-.78-.73-1.55-1.1-2.32l-.11-.21-.12-.27c-.46-.93-.92-1.86-1.4-2.77l-.24-.47-.17-.31c-.34-.66-.69-1.31-1-2-.12-.24-.25-.47-.38-.7l-.17-.32-.95-1.69-.56-1-.06-.11c-.32-.54-.63-1.08-1-1.61-.21-.36-.43-.72-.65-1.08l-1-1.6-.07-.1-.59-.94c-.35-.55-.71-1.1-1.07-1.65l-.2-.31c-.13-.21-.27-.42-.41-.62-.43-.65-.86-1.29-1.3-1.93l-.18-.26-.25-.36c-.58-.85-1.18-1.68-1.78-2.51l-.26-.35-.18-.24c-.46-.63-.92-1.26-1.4-1.89l-.45-.59-.22-.28L563.07,348l-.67-.84-.09-.11-1.18-1.46-.8-1-1.2-1.42-.81-.93c-.42-.49-.85-1-1.27-1.44l-.24-.26q-.25-.3-.54-.6c-.48-.54-1-1.07-1.47-1.6l-.24-.26-.37-.39-2.13-2.22-.19-.18-.14-.14c-.61-.62-1.23-1.23-1.85-1.84l-.49-.46-.27-.27c-.49-.47-1-.93-1.47-1.39l-.67-.63-.21-.19-1.39-1.26-.93-.84-1.4-1.21-.94-.81-1.46-1.22-.23-.19-.68-.56-1.63-1.3-.29-.24c-.16-.13-.32-.26-.49-.38-.8-.63-1.62-1.26-2.44-1.87s-1.65-1.22-2.48-1.82l-.51-.36-.3-.21-1.71-1.2-.74-.5-.25-.17-1.58-1-1.05-.68-1.57-1c-.35-.22-.7-.45-1.06-.66l-1.62-1-.22-.13-.82-.49-1.75-1-.33-.19-.6-.34-2.25-1.24-.2-.11-.26-.14c-.91-.49-1.83-1-2.75-1.43l-.48-.24-.32-.16-2-1-.75-.36-.3-.14-1.77-.82-1.14-.52-1.72-.76-1.17-.49-1.75-.73-.14-.05-1-.42-1.85-.72-.35-.13-.72-.28-2.21-.8-.3-.11-.43-.15c-1-.35-2-.68-3-1l-.42-.13-.3-.1-2.28-.71-.73-.22-.37-.11-1.93-.56-1.05-.29-.17,0-1.85-.5-1.26-.31-1.86-.45-1.25-.3-1.94-.42-.35-.07-.83-.18-2.22-.43-.36-.07-.55-.11c-1.08-.19-2.14-.38-3.16-.54l-.29,0-.22,0c-.89-.14-1.78-.28-2.67-.4l-.71-.09-.4-.06-2.09-.26-1-.11-.25,0-2-.2-1.32-.12c-.65-.05-1.3-.11-2-.15l-1.32-.1-2-.11-.32,0-1,0c-.73,0-1.47-.06-2.21-.08h-.41l-.67,0c-1.18,0-2.26,0-3.3,0-1.28,0-2.59,0-3.88.05l-.8,0-.52,0h-.42c-.71,0-1.42.05-2.12.09l-1,.05-.58,0-.53,0-1.77.12c-.35,0-.69.06-1,.09l-.59.05-.57.05-1.6.14-1.1.13-.59.07-.57.06-1.53.18-1.13.15-.58.08-.57.08c-.49.07-1,.13-1.47.21l-1.15.19-.59.09-.55.1-1.43.23-1.14.22-.57.11-.56.1-1.42.28-1.14.24-.56.13-.53.11-1.43.31-1.15.28-.55.13-.54.13-1.38.34-1.17.32-.54.14-.54.15-1.34.36-1.15.34-.55.16-.52.15-1.34.41-1.16.37-.52.17-.49.16-1.34.43-1.15.4-.52.18-.49.18c-.44.15-.89.3-1.32.46l-1.14.43-.51.19-.49.19-1.3.5-1.16.46-.49.21-.47.19-1.28.52-1.16.5-.48.21-.47.21-1.24.54-1.16.54-.46.21-.45.21-1.25.58-1.13.56-.46.23-.43.21-1.25.62-1.13.59-.44.24L374,308l-1.23.65-1.13.62-.43.24-.4.22-1.22.69-1.11.65-.42.24-.39.23-1.21.72-1.11.69-.4.24-.39.25c-.4.24-.79.49-1.18.74l-1.1.71-.39.26-.36.23-1.18.78-1.09.75-.38.26-.35.24-1.16.81-1.07.77-.37.27-.35.25c-.38.28-.76.55-1.14.84s-.71.53-1.06.8l-.35.27-.32.24-1.15.88-1.05.84-.33.27-.31.24-1.13.91-1.05.88-.31.26-.3.26c-.37.3-.74.61-1.1.93l-1,.91-.3.26-.27.24-1.1,1-1,.94-.28.26-.27.26-1.07,1-1,1-.28.27-.25.25c-.35.34-.71.68-1.05,1l-1,1-.26.26-.22.23q-.54.54-1.05,1.08c-.33.34-.66.69-1,1l-.25.26-.22.23-1,1.11c-.33.35-.65.71-1,1.07l-.23.25-.21.23-1,1.14c-.32.37-.64.74-.95,1.12l-.2.24-.19.21-1,1.18-.94,1.16-.18.22-.16.2c-.33.41-.67.82-1,1.23s-.62.79-.92,1.19l-.17.22-.15.19-1,1.26L322.9,352l-.17.23-.14.19-.94,1.29-.88,1.25-.15.21-.13.19-.91,1.32c-.3.43-.59.87-.88,1.31l-.12.18-.11.17-.9,1.36c-.28.44-.56.88-.83,1.32l-.13.19-.1.16-.87,1.4-.82,1.36-.1.18-.05.08c-.3.5-.6,1-.89,1.5s-.54.94-.8,1.41l-.08.15-.06.1c-.28.5-.57,1-.84,1.51s-.53,1-.79,1.47l-.06.11,0,.07c-.28.52-.55,1-.82,1.56s-.53,1-.78,1.54l0,.07,0,.05-.8,1.6-.75,1.57,0,.06-.78,1.68c-.24.52-.47,1.05-.71,1.58l0,.07c-.25.56-.5,1.13-.74,1.69l-.7,1.68-.7,1.71-.66,1.69-.66,1.75c-.21.56-.41,1.13-.62,1.7s-.42,1.17-.62,1.76-.39,1.16-.58,1.74-.39,1.18-.57,1.77-.37,1.17-.54,1.75l-.54,1.8c-.17.58-.33,1.17-.49,1.76s-.33,1.21-.49,1.82-.31,1.19-.46,1.78-.3,1.22-.44,1.84-.28,1.2-.41,1.8-.28,1.23-.41,1.85l-.36,1.81c-.13.62-.25,1.25-.36,1.87s-.22,1.22-.32,1.84-.22,1.25-.32,1.87l-.27,1.86q-.15.94-.27,1.89c-.08.62-.16,1.24-.23,1.86s-.15,1.28-.22,1.91-.13,1.26-.19,1.88-.12,1.28-.17,1.92-.09,1.26-.14,1.9l-.12,1.94q-.06.94-.09,1.89c0,.66-.06,1.31-.08,2s0,1.27,0,1.91l0,.46c0,.21,0,.42,0,.63V441c0,.17,0,.33,0,.5s0,.45,0,.68v.48l0,1.71c0,.84,0,1.68.07,2.51,0,.35,0,.71,0,1.06A150.67,150.67,0,0,0,443,592.49v248A399.11,399.11,0,0,1,283,76.84,393.72,393.72,0,0,1,444.52,42.5v-1m0,0c-229.89,0-415.27,196.24-399,428.33C60,677.52,233.11,841.5,444.5,841.5q10.13,0,20.14-.5H444V591.49a150,150,0,0,1-149.36-143.6l0-1c0-.83-.06-1.66-.07-2.5l0-1.69c0-.39,0-.77,0-1.16s0-.59,0-.88v-.84c0-.37,0-.73,0-1.09,0-.63,0-1.27,0-1.9s.05-1.3.07-1.94.06-1.26.1-1.89.07-1.28.12-1.92.09-1.26.14-1.89.11-1.27.17-1.9l.18-1.87c.07-.63.15-1.27.22-1.9s.15-1.23.23-1.85.17-1.25.27-1.88.18-1.23.27-1.84.21-1.25.31-1.87.21-1.21.32-1.82l.36-1.85.36-1.81c.13-.61.27-1.22.4-1.84s.27-1.19.41-1.78.29-1.22.44-1.82l.45-1.78c.16-.6.33-1.2.49-1.8s.33-1.17.49-1.75.36-1.2.53-1.79l.54-1.74.57-1.76c.19-.58.38-1.15.58-1.72s.41-1.17.61-1.75l.62-1.7c.21-.58.43-1.15.65-1.73l.66-1.68c.23-.57.46-1.13.7-1.7l.69-1.66c.24-.57.49-1.13.74-1.69s.48-1.09.73-1.64l.78-1.66c.25-.54.51-1.08.77-1.62s.54-1.1.82-1.64.53-1.07.8-1.6.57-1.08.86-1.62l.84-1.57.9-1.6.88-1.55c.3-.52.62-1.05.93-1.57s.61-1,.92-1.53.64-1,1-1.54l1-1.51,1-1.52,1-1.48c.34-.5.69-1,1-1.49l1-1.46,1.08-1.47c.34-.48.69-.95,1-1.42s.74-1,1.11-1.45l1.08-1.4,1.14-1.42c.38-.45.75-.91,1.12-1.37l1.18-1.39c.38-.45.76-.9,1.15-1.34s.8-.91,1.21-1.36l1.18-1.32L335,339l1.22-1.29,1.27-1.29c.41-.43.82-.85,1.24-1.27l1.3-1.26c.42-.42.84-.83,1.27-1.23l1.33-1.24,1.3-1.2,1.36-1.21,1.33-1.17,1.39-1.17,1.36-1.14,1.42-1.14,1.38-1.1,1.45-1.12,1.4-1.06c.49-.37,1-.72,1.49-1.08l1.42-1c.5-.36,1-.7,1.51-1.05l1.45-1,1.54-1,1.48-1,1.56-1c.5-.31,1-.62,1.5-.92l1.59-.95,1.52-.88c.53-.31,1.07-.61,1.61-.91l1.54-.85,1.64-.87,1.57-.82,1.66-.82c.53-.26,1.05-.53,1.58-.78l1.69-.79,1.61-.75,1.7-.74,1.63-.71,1.73-.71c.55-.22,1.09-.45,1.65-.66l1.78-.68,1.63-.62,1.8-.63,1.66-.58,1.82-.59c.56-.18,1.11-.37,1.67-.54l1.85-.55,1.68-.5,1.87-.5,1.7-.46,1.9-.46,1.7-.41,1.95-.43,1.68-.36,2-.38,1.7-.32c.65-.12,1.31-.22,2-.33l1.73-.28,2-.29,1.7-.23c.69-.09,1.39-.16,2.08-.24l1.68-.19,2.16-.19,1.62-.15,2.28-.14,1.53-.1c.84,0,1.68-.06,2.52-.09l1.31-.05c1.28,0,2.57-.05,3.86-.05,1.1,0,2.19,0,3.28,0,.36,0,.71,0,1.07,0l2.2.07,1.26.07,2,.11,1.31.09,1.94.16c.44,0,.88.07,1.31.12l2,.2,1.26.13c.69.09,1.39.17,2.08.27l1.1.14c.89.12,1.77.25,2.66.39l.5.08c1.05.17,2.1.35,3.14.54l.91.17,2.2.43,1.18.25,1.92.42,1.25.29c.61.14,1.23.29,1.84.45l1.25.31,1.84.49,1.2.33,1.93.56,1.09.32,2.26.71.72.23c1,.32,2,.66,2.95,1l.72.26,2.2.8,1.06.41,1.84.71,1.15.47q.87.34,1.74.72l1.16.49,1.71.76,1.13.51,1.76.82,1,.49,2,1,.79.39c.91.46,1.82.94,2.72,1.42l.47.25c.74.41,1.49.81,2.23,1.23l.93.53,1.74,1,1,.61,1.61,1,1,.65,1.56,1,1,.68c.53.34,1.05.69,1.57,1,.33.22.66.44,1,.67L531,319l.81.56c.82.6,1.65,1.2,2.46,1.81h0l2.42,1.85.77.62,1.62,1.29.9.75,1.45,1.21.94.8,1.39,1.21.92.83,1.39,1.26.87.81,1.45,1.38.76.73c.62.6,1.23,1.21,1.84,1.82l.32.33c.72.72,1.42,1.45,2.12,2.19l.61.65,1.46,1.59c.26.28.52.57.77.86.43.47.85.94,1.27,1.42l.8.93c.4.47.8.94,1.19,1.42.27.31.53.63.8.95l1.17,1.44.75.95c.41.51.81,1,1.21,1.55l.67.87c.47.62.93,1.24,1.39,1.87l.43.58c.6.83,1.19,1.66,1.77,2.5l.42.62c.44.63.87,1.27,1.3,1.91.2.31.4.62.61.93l1.06,1.64.65,1,1,1.59.64,1.07c.32.53.63,1.07.94,1.6l.62,1.07c.32.56.63,1.12.94,1.69l.55,1c.35.65.7,1.3,1,2l.4.77c.47.92.94,1.83,1.39,2.76l.23.48c.37.76.74,1.53,1.09,2.3l.45,1c.28.61.55,1.22.83,1.84l.48,1.12c.25.58.49,1.16.74,1.75.16.38.31.77.47,1.16q.36.87.69,1.74c.16.39.31.78.46,1.17l.67,1.8c.13.38.27.75.41,1.13.05.13.1.27.14.4a37.32,37.32,0,0,0,35.13,25H812.47a28.2,28.2,0,0,0,28-32.06C813.7,197.12,657.16,51.64,464.83,42q-10.2-.51-20.31-.51Z" transform="translate(510 90)"/><path class="cls-3" d="M444.5,840.5V592c1.1,0,2.2,0,3.3,0l1.08,0,2.21-.07,1.26-.07,2-.11,1.33-.1c.65,0,1.29-.1,1.94-.15l1.34-.12,1.93-.2,1.3-.14,2-.26,1.19-.15,2.3-.35.88-.13c1.06-.17,2.11-.35,3.16-.54l.62-.12,2.5-.49,1.13-.24,2-.43,1.23-.29,1.86-.45,1.27-.32,1.82-.49,1.25-.34c.62-.18,1.23-.35,1.84-.54l1.2-.35,1.94-.61,1.06-.34,2.4-.81.57-.2c1-.34,2-.7,2.93-1.06l.84-.33c.7-.26,1.39-.53,2.07-.8l1.09-.45,1.8-.74,1.11-.48,1.76-.77,1.17-.53,1.68-.79L510,577c.58-.27,1.15-.56,1.72-.84l1.07-.54,1.85-1,.89-.47c.91-.49,1.81-1,2.71-1.49l.1-.06c.87-.49,1.72-1,2.57-1.48l.88-.53,1.76-1.07,1-.64,1.59-1,1.06-.69,1.52-1,1.06-.72,1.51-1.06,1-.71,1.57-1.15.91-.68,1.79-1.36.65-.51c.81-.63,1.61-1.27,2.4-1.91l.52-.44c.61-.5,1.23-1,1.83-1.53l.85-.73,1.47-1.29.91-.82,1.38-1.25.92-.86,1.32-1.26.91-.88c.45-.43.88-.87,1.32-1.31l.86-.86q.7-.72,1.38-1.44l.75-.78,1.72-1.86.36-.39c.68-.76,1.36-1.52,2-2.29l.6-.71c.47-.54.93-1.08,1.39-1.63l.74-.9c.4-.5.81-1,1.2-1.49l.77-1c.39-.49.76-1,1.13-1.46l.77-1c.37-.49.74-1,1.1-1.48l.74-1,1.1-1.54.68-1,1.18-1.74.54-.81c.57-.86,1.13-1.72,1.68-2.59l.12-.19c.5-.8,1-1.61,1.49-2.43l.54-.9,1-1.76.6-1c.31-.55.62-1.1.92-1.65.2-.37.41-.74.61-1.12.29-.54.58-1.08.86-1.63.2-.37.39-.75.59-1.13.28-.56.56-1.11.83-1.67.19-.37.38-.75.56-1.12l.84-1.77.49-1c.32-.69.63-1.39.94-2.09l.33-.75c.41-.95.82-1.9,1.21-2.86L584,498c.3-.74.6-1.48.89-2.23l.4-1.06.69-1.87.81-2.28a34.9,34.9,0,0,1,27.25-23,36.16,36.16,0,0,1,5.81-.49H711.5V840.5H480.25a3.32,3.32,0,0,1,.81-.16l.72-.07-.09-1c-5.87.54-11.62,1-17.08,1.22Zm46.33-2.17c-1.58.18-3.17.34-4.75.51l.1,1c1.59-.16,3.18-.33,4.76-.51Zm9-1.15-4.7.61.12,1,4.72-.62Zm9-1.35c-1.55.25-3.11.48-4.66.72l.14,1,4.68-.73Zm8.92-1.55-4.63.82.17,1c1.55-.27,3.1-.54,4.64-.83Zm8.84-1.75c-1.52.32-3.05.63-4.58.93l.19,1c1.54-.3,3.07-.61,4.6-.93Zm8.78-1.94c-1.51.36-3,.7-4.55,1l.22,1,4.56-1Zm8.7-2.13c-1.5.39-3,.77-4.5,1.13l.23,1c1.51-.36,3-.74,4.52-1.13Zm8.63-2.31-4.47,1.22.26,1c1.5-.4,3-.81,4.48-1.23Zm8.55-2.51L556.84,825l.28,1,4.45-1.33Zm8.48-2.69-4.4,1.43.3,1,4.41-1.43Zm8.39-2.87-4.36,1.52.32.95c1.46-.5,2.92-1,4.37-1.53Zm8.3-3.06q-2.15.83-4.32,1.62l.35.94c1.45-.53,2.89-1.07,4.33-1.62Zm8.22-3.23c-1.42.58-2.85,1.16-4.28,1.72l.37.93c1.43-.56,2.86-1.14,4.29-1.72Zm8.13-3.4c-1.41.61-2.82,1.22-4.24,1.81l.39.92c1.42-.59,2.83-1.2,4.25-1.82Zm7.62-3.39-3.78,1.72.41.91c1.27-.56,2.53-1.14,3.79-1.72l.42-.2-.41-.91Zm8-3.75c-1.25.61-2.5,1.22-3.77,1.81l.43.9c1.26-.59,2.52-1.2,3.78-1.81l.41-.2-.44-.9Zm7.53-3.74-3.41,1.73.45.89,3.41-1.73.75-.39-.46-.89Zm7.63-4-3.25,1.75.47.88c1.09-.57,2.18-1.16,3.26-1.75l.87-.47-.47-.88Zm7.77-4.29L638,791.09l.48.87c1.12-.62,2.23-1.25,3.34-1.88l.78-.45-.5-.87Zm7.44-4.33c-1.06.64-2.11,1.27-3.18,1.89l.51.87,3.19-1.9.92-.56-.51-.85Zm7.48-4.57c-1.05.67-2.11,1.33-3.17,2l.52.86c1.07-.66,2.13-1.32,3.18-2l1-.6-.54-.85Zm7.52-4.82c-1.1.73-2.2,1.46-3.31,2.17l.54.84c1.11-.71,2.21-1.45,3.32-2.18l.89-.59-.55-.83Zm7.6-5.13c-1.21.84-2.42,1.69-3.64,2.51l.55.83q1.85-1.25,3.66-2.52l.74-.51-.57-.82Zm8.3-5.89c-1.59,1.16-3.18,2.32-4.79,3.46l.58.82c1.61-1.14,3.21-2.31,4.8-3.48l.2-.14-.59-.81Zm9.18-6.87c-2.25,1.74-4.58,3.5-6.93,5.24l.6.8c2.35-1.74,4.68-3.51,6.94-5.25Zm6.8-5.39c-1.76,1.43-3.55,2.83-5.34,4.23l.61.79q2.7-2.1,5.36-4.24Zm6.69-5.54q-1.7,1.44-3.41,2.83l-.82.68.63.77.82-.67c1.15-.95,2.29-1.89,3.42-2.84Zm6.56-5.67c-1,.88-2,1.75-3,2.62l-.81.7.65.76.81-.7c1-.87,2-1.74,3-2.63Z" transform="translate(510 90)"/><path class="cls-3" d="M711,467.5V840H489.35l1.65-.18-.23-2-4.74.51.17,1.66h-4.41l-.12-1.23c-5.88.55-11.63,1-17,1.23H445V592.5c.9,0,1.82,0,2.81,0l.67,0h.41c.74,0,1.48,0,2.22-.08l.94,0,.33,0,2-.11,1.34-.1,1.94-.15,1.34-.12,1.94-.2.16,0,1.15-.13,2-.25.38-.05.81-.11,2.31-.34.36-.05.52-.08c1.07-.18,2.14-.36,3.17-.55l.35-.07.27-.05,2.51-.49.75-.16.38-.08,2-.43,1-.23.26-.06,1.86-.46,1.27-.32,1.83-.49,1.26-.34,1.84-.54.27-.07.93-.28,2-.62.37-.12.69-.22c.81-.26,1.61-.53,2.41-.81l.25-.08.32-.12c1-.34,2-.7,2.95-1.07l.5-.19.34-.13c.7-.27,1.39-.53,2.08-.81l.76-.31.33-.13,1.81-.75,1-.46.11,0,1.71-.76,1.18-.53,1.68-.79,1.15-.55c.58-.27,1.15-.56,1.72-.84l.29-.15.78-.39,1.86-1,.34-.18.56-.29c.91-.49,1.82-1,2.72-1.5l.1-.06c.86-.48,1.72-1,2.58-1.48l.54-.33.33-.2c.6-.36,1.19-.71,1.77-1.08l.78-.48.25-.16,1.59-1,1.07-.7,1.52-1,1.06-.73c.51-.35,1-.7,1.52-1.06l.13-.09.89-.63L534.2,563l.3-.22.61-.46c.61-.45,1.2-.91,1.8-1.37l.27-.21.38-.29c.81-.64,1.61-1.28,2.4-1.93l.3-.24.23-.19,1.84-1.54.56-.48.28-.25,1.48-1.29.74-.67.18-.16,1.37-1.25.93-.87c.45-.41.89-.84,1.33-1.26l.91-.88,1.33-1.32.18-.18.68-.69,1.38-1.43.27-.28.48-.51c.59-.61,1.16-1.24,1.73-1.87l.16-.17.2-.22c.69-.75,1.37-1.52,2-2.29l.37-.44.23-.27,1.39-1.64.51-.62.23-.29c.41-.49.81-1,1.21-1.49l.71-.9.07-.08c.38-.48.76-1,1.13-1.46.26-.33.52-.67.77-1l1.1-1.48.75-1c.37-.51.73-1,1.09-1.55l.2-.27.49-.71,1.18-1.74.21-.31c.12-.17.23-.34.34-.51.57-.85,1.13-1.72,1.68-2.59l.07-.11.05-.08c.51-.81,1-1.62,1.5-2.44.12-.19.23-.38.34-.57l.2-.34c.35-.58.7-1.17,1-1.76.14-.26.29-.52.44-.78l.16-.28c.31-.55.62-1.1.92-1.65.2-.37.4-.75.61-1.12.29-.54.58-1.09.86-1.64.2-.38.4-.76.59-1.14.29-.55.57-1.11.84-1.66l.09-.19c.16-.31.32-.63.47-.94.29-.59.56-1.19.84-1.78l.16-.33.33-.71c.32-.7.64-1.4.95-2.1l.14-.32c.06-.14.13-.28.19-.43.41-.95.82-1.91,1.21-2.87.06-.13.11-.26.16-.39l.11-.29c.3-.74.6-1.48.89-2.23l.27-.71.13-.36c.24-.62.47-1.24.7-1.87.12-.32.23-.64.34-1l.08-.23.15-.42c.08-.22.17-.45.24-.68A34.4,34.4,0,0,1,614.16,468a33.82,33.82,0,0,1,5.72-.49H711m-5,278,.81-.71c1-.87,2-1.74,3-2.62l-1.32-1.5c-1,.88-2,1.74-3,2.61l-.82.7,1.31,1.52m-7,5.88.71-.58c1.18-1,2.37-2,3.54-2.94l-1.3-1.53c-1.16,1-2.33,2-3.51,2.92l-.71.58,1.27,1.55m-7.83,6.28c1.62-1.26,3.51-2.74,5.37-4.25l-1.26-1.55c-1.85,1.49-3.73,3-5.34,4.23l1.23,1.57M682.8,764c2.33-1.72,4.67-3.49,6.94-5.26l-1.22-1.58c-2.27,1.76-4.59,3.52-6.91,5.23L682.8,764m-7.07,5.11c1.61-1.14,3.23-2.32,4.8-3.47l.21-.15-1.18-1.61-.21.15c-1.56,1.14-3.17,2.32-4.78,3.45l1.16,1.63m-7.19,5c1.2-.81,2.39-1.64,3.58-2.47l.83-.57-1.15-1.64L671,770c-1.18.82-2.36,1.64-3.56,2.45l1.12,1.66m-7.29,4.8c1.11-.71,2.21-1.44,3.31-2.17l.91-.6-1.11-1.67-.91.6c-1.09.73-2.18,1.45-3.28,2.16l1.08,1.68m-7.4,4.65c1.08-.66,2.16-1.35,3.24-2L658,781l-1.06-1.69-.9.56c-1.07.68-2.14,1.36-3.22,2l1.05,1.7m-7.52,4.5c1.09-.63,2.16-1.28,3.24-1.93l.88-.53-1-1.71-.88.53c-1.07.64-2.14,1.28-3.22,1.91l1,1.73m-7.61,4.33c1.1-.61,2.21-1.24,3.31-1.87l.81-.46-1-1.74-.82.46c-1.09.63-2.18,1.25-3.29,1.86l1,1.75M631,796.57c1.15-.6,2.29-1.22,3.43-1.83l.71-.39-1-1.76-.72.39c-1.13.61-2.26,1.22-3.4,1.82l.93,1.77m-7.82,4c1.19-.59,2.37-1.2,3.54-1.8l.63-.32-.92-1.78-.62.32c-1.17.6-2.34,1.2-3.52,1.79l.89,1.79m-7.92,3.84,3.67-1.76.53-.26-.88-1.8-.53.26-3.64,1.75.85,1.81m-8,3.67c1.3-.58,2.59-1.17,3.88-1.77l.34-.15-.83-1.82-.34.16-3.86,1.75.81,1.83m-8.11,3.49c1.38-.57,2.74-1.16,4.11-1.75l.15-.07-.8-1.83-.14.06c-1.36.59-2.72,1.18-4.09,1.75l.77,1.84m-8.2,3.33,4.3-1.73-.75-1.85-4.28,1.72.73,1.86m-8.29,3.14c1.45-.53,2.89-1.08,4.34-1.62l-.71-1.87L582,816.18l.69,1.87m-8.38,3c1.47-.5,2.92-1,4.38-1.53L578,817.6l-4.35,1.53.64,1.89m-8.46,2.79c1.48-.47,3-.95,4.42-1.44l-.63-1.9c-1.46.49-2.92,1-4.39,1.43l.6,1.91m-8.53,2.6c1.48-.44,3-.88,4.44-1.34l-.58-1.91-4.43,1.33.57,1.92m-8.63,2.41c1.5-.4,3-.81,4.48-1.23l-.54-1.93c-1.48.42-3,.83-4.45,1.23l.51,1.93m-8.7,2.23,4.53-1.13L544,828l-4.5,1.13.47,1.94m-8.77,2c1.52-.34,3-.68,4.56-1l-.45-1.94c-1.51.35-3,.69-4.54,1l.43,2m-8.85,1.84c1.54-.3,3.07-.61,4.6-.93l-.41-2c-1.52.32-3,.63-4.58.93l.39,2m-8.92,1.65c1.55-.27,3.1-.54,4.64-.83l-.36-2c-1.54.29-3.08.56-4.62.83l.34,2m-9,1.45,4.68-.72-.32-2c-1.55.25-3.1.49-4.66.72l.3,2m-9.06,1.25c1.58-.2,3.16-.4,4.73-.62l-.28-2c-1.56.22-3.13.42-4.7.62l.25,2M712,466.5H619.88a35.83,35.83,0,0,0-5.89.5,35.42,35.42,0,0,0-27.64,23.37l-.39,1.09-.42,1.18-.69,1.86-.4,1.06c-.29.74-.58,1.48-.88,2.22l-.27.67c-.39.95-.8,1.91-1.21,2.85l-.33.74c-.31.7-.62,1.4-.94,2.09l-.48,1-.84,1.76-.55,1.12c-.28.55-.55,1.11-.84,1.66l-.58,1.13-.86,1.63c-.2.37-.4.74-.61,1.11l-.91,1.64-.6,1c-.34.59-.68,1.17-1,1.75l-.53.91c-.49.81-1,1.61-1.5,2.41l-.11.2c-.55.86-1.11,1.72-1.67,2.57l-.55.81c-.38.58-.77,1.16-1.17,1.73-.23.33-.46.65-.68,1l-1.09,1.53-.74,1-1.1,1.47c-.25.33-.5.67-.76,1-.37.49-.75,1-1.13,1.45-.25.33-.51.65-.77,1-.39.5-.8,1-1.2,1.48l-.74.9c-.45.54-.91,1.09-1.38,1.63l-.6.7c-.67.77-1.34,1.53-2,2.28l-.36.39c-.56.62-1.14,1.24-1.71,1.86l-.75.78c-.46.47-.91.95-1.38,1.42l-.85.87-1.32,1.3-.9.88-1.32,1.26-.92.86-1.37,1.24-.91.82L542.52,555l-.84.73-1.83,1.53-.52.43c-.79.64-1.58,1.28-2.39,1.91l-.65.5-1.78,1.36-.91.68L532,563.31l-1,.72-1.51,1.05-1,.72c-.5.34-1,.68-1.51,1l-1.06.7-1.58,1-1,.64-1.76,1.07-.87.52c-.85.51-1.7,1-2.56,1.48l-.11.06c-.89.51-1.79,1-2.69,1.48l-.9.47-1.84,1-1.07.53c-.57.28-1.13.57-1.7.84l-1.14.55-1.68.78-1.17.53-1.7.75-1.15.5-1.8.74-1.08.44c-.69.28-1.38.54-2.07.8l-.83.33c-1,.36-1.95.72-2.93,1.06l-.57.19c-.79.28-1.59.55-2.39.81l-1.05.34-1.94.61-1.19.35-1.83.53-1.25.35-1.82.48L481,587c-.61.16-1.23.31-1.85.45l-1.23.29-2,.43c-.37.08-.74.17-1.12.24l-2.49.49-.62.12-3.15.54-.87.13c-.77.12-1.53.24-2.3.34l-1.18.16-2,.25-1.3.14-1.92.2-1.33.12c-.65.06-1.29.11-1.94.15l-1.32.1-2,.11-1.27.07-2.2.07-1.07,0c-1.1,0-2.19,0-3.29,0H444V841a0,0,0,0,0,0,0h20.6c5.74-.28,11.45-.71,17.13-1.23l-1.57.16a.54.54,0,0,0,.05,1.07H712V466.5Zm-6.63,278.2c1.28-1.1,2.57-2.2,3.84-3.32-1.27,1.12-2.56,2.22-3.84,3.32Zm-7,5.86c1.41-1.16,2.83-2.32,4.23-3.5-1.4,1.18-2.82,2.34-4.23,3.5Zm-7.82,6.28c1.8-1.41,3.59-2.81,5.36-4.24-1.77,1.43-3.56,2.83-5.36,4.24Zm-8.39,6.4c2.33-1.73,4.64-3.47,6.93-5.25-2.29,1.78-4.6,3.52-6.93,5.25Zm-7.05,5.1c1.68-1.19,3.34-2.4,5-3.62-1.66,1.22-3.32,2.43-5,3.62ZM668,773.29c1.48-1,2.93-2,4.4-3-1.47,1-2.92,2-4.4,3Zm-7.27,4.79c1.41-.91,2.81-1.84,4.21-2.77-1.4.93-2.8,1.86-4.21,2.77Zm-7.39,4.64c1.39-.85,2.76-1.72,4.13-2.59-1.37.87-2.74,1.74-4.13,2.59Zm-7.49,4.49,4.1-2.45-4.1,2.45Zm-7.6,4.32c1.38-.77,2.74-1.55,4.11-2.33-1.37.78-2.73,1.56-4.11,2.33Zm-7.7,4.16c1.38-.73,2.75-1.48,4.13-2.22-1.38.74-2.75,1.49-4.13,2.22Zm-7.8,4c1.39-.69,2.77-1.4,4.15-2.11-1.38.71-2.76,1.42-4.15,2.11Zm-7.9,3.83c1.4-.66,2.79-1.34,4.18-2-1.39.67-2.78,1.35-4.18,2Zm-8,3.66c1.41-.62,2.81-1.27,4.21-1.91-1.4.64-2.8,1.29-4.21,1.91Zm-8.09,3.49c1.43-.59,2.84-1.2,4.25-1.81-1.41.61-2.82,1.22-4.25,1.81ZM590.56,814l4.29-1.72L590.56,814Zm-8.27,3.13c1.45-.53,2.89-1.07,4.33-1.62-1.44.55-2.88,1.09-4.33,1.62Zm-8.35,3,4.37-1.52-4.37,1.52Zm-8.44,2.78c1.47-.46,2.94-.94,4.41-1.43-1.47.49-2.94,1-4.41,1.43Zm-8.52,2.6,4.44-1.33L557,825.45Zm-8.6,2.41q2.25-.6,4.47-1.23-2.22.63-4.47,1.23Zm-8.67,2.22,4.51-1.13-4.51,1.13Zm-8.76,2c1.52-.33,3-.68,4.55-1-1.51.35-3,.7-4.55,1ZM522.13,834l4.59-.93-4.59.93Zm-8.9,1.64c1.54-.26,3.09-.54,4.63-.82-1.54.28-3.09.56-4.63.82Zm-9,1.45c1.56-.23,3.12-.47,4.67-.72-1.55.25-3.11.49-4.67.72Zm-9,1.25c1.57-.2,3.14-.4,4.71-.62-1.57.22-3.14.42-4.71.62Zm-9.1,1c1.59-.16,3.17-.33,4.75-.51-1.58.18-3.16.35-4.75.51Z" transform="translate(510 90)"/><path class="cls-1" d="M584.73,388.17c-.15-.39-.3-.78-.46-1.17q-.33-.87-.69-1.74c-.16-.39-.31-.78-.47-1.16-.25-.59-.49-1.17-.74-1.75l-.48-1.12c-.28-.62-.55-1.23-.83-1.84l-.45-1c-.35-.77-.72-1.54-1.09-2.3l-.23-.48c-.45-.93-.92-1.84-1.39-2.76l-.4-.77c-.34-.65-.69-1.3-1-2l-.55-1c-.31-.57-.62-1.13-.94-1.69l-.62-1.07c-.31-.53-.62-1.07-.94-1.6l-.64-1.07-1-1.59-.65-1-1.06-1.64c-.21-.31-.41-.62-.61-.93-.43-.64-.86-1.28-1.3-1.91l-.42-.62c-.58-.84-1.17-1.67-1.77-2.5l-.43-.58c-.46-.63-.92-1.25-1.39-1.87l-.67-.87c-.4-.52-.8-1-1.21-1.55l-.75-.95-1.17-1.44c-.27-.32-.53-.64-.8-.95-.39-.48-.79-1-1.19-1.42l-.8-.93c-.42-.48-.84-.95-1.27-1.42-.25-.29-.51-.58-.77-.86l-1.46-1.59c-.21-.21-.4-.43-.61-.65-.7-.74-1.4-1.47-2.12-2.19l-.32-.33c-.61-.61-1.22-1.22-1.84-1.82l-.76-.73L547,332l-.87-.81-1.39-1.26-.92-.83-1.39-1.21-.94-.8L540,325.85l-.9-.75-1.62-1.29-.77-.62-2.42-1.85h0c-.81-.61-1.64-1.21-2.46-1.81L531,319l-1.7-1.19c-.32-.23-.65-.45-1-.67-.52-.35-1-.7-1.57-1l-1-.68-1.56-1-1-.65-1.61-1-1-.61-1.74-1-.93-.53c-.74-.42-1.49-.82-2.23-1.23l-.47-.25c-.9-.48-1.81-1-2.72-1.42l-.79-.39-2-1-1-.49-1.76-.82-1.13-.51-1.71-.76-1.16-.49q-.87-.37-1.74-.72l-1.15-.47-1.84-.71L497,301l-2.2-.8-.72-.26c-1-.34-2-.68-2.95-1l-.72-.23-2.26-.71-1.09-.32-1.93-.56-1.2-.33-1.84-.49-1.25-.31c-.61-.16-1.23-.31-1.84-.45l-1.25-.29-1.93-.42-1.17-.25-2.2-.43-.91-.17c-1-.19-2.09-.37-3.14-.54l-.5-.08c-.89-.14-1.77-.27-2.66-.39l-1.1-.14c-.69-.1-1.39-.18-2.08-.27l-1.26-.13-2-.2c-.43-.05-.87-.08-1.31-.12l-1.94-.16-1.31-.09-2-.11-1.26-.07-2.2-.07c-.36,0-.71,0-1.07,0-1.09,0-2.18,0-3.28,0-1.29,0-2.58,0-3.86.05l-1.31.05c-.84,0-1.68,0-2.52.09l-1.53.1-2.28.14-1.62.15-2.16.19-1.68.19c-.69.08-1.39.15-2.08.24l-1.7.23-2,.29-1.73.28c-.66.11-1.32.21-2,.33l-1.7.32-2,.38-1.69.36-1.94.43-1.7.41-1.9.46-1.7.46-1.87.5-1.68.5-1.85.55c-.56.17-1.11.36-1.67.54l-1.82.59-1.66.58-1.8.63-1.63.62-1.78.68c-.56.21-1.1.44-1.65.66l-1.73.71-1.63.71-1.7.74-1.61.75-1.69.79c-.53.25-1.05.52-1.58.78l-1.66.82-1.57.82-1.64.87-1.54.85c-.54.3-1.08.6-1.61.91l-1.52.88-1.59.95c-.51.3-1,.61-1.5.92l-1.56,1-1.48,1-1.54,1-1.45,1c-.5.35-1,.69-1.51,1.05l-1.42,1c-.5.36-1,.71-1.49,1.08l-1.4,1.06-1.45,1.12-1.38,1.1-1.42,1.14L348,326.67l-1.39,1.17L345.28,329l-1.36,1.21-1.3,1.2-1.33,1.24c-.43.4-.85.81-1.27,1.23l-1.3,1.26c-.42.42-.83.84-1.24,1.27l-1.27,1.29L335,339l-1.23,1.33-1.18,1.32c-.41.45-.81.9-1.21,1.36s-.77.89-1.15,1.34L329,345.74c-.37.46-.74.92-1.12,1.37l-1.14,1.42-1.08,1.4c-.37.48-.75,1-1.11,1.45s-.71.94-1,1.42l-1.08,1.47-1,1.46c-.35.49-.7,1-1,1.49l-1,1.48-1,1.52-1,1.51c-.32.51-.65,1-1,1.54s-.62,1-.92,1.53-.63,1.05-.93,1.57l-.88,1.55-.9,1.6-.84,1.57c-.29.54-.58,1.08-.86,1.62s-.54,1.06-.8,1.6-.55,1.09-.82,1.64-.52,1.08-.77,1.62l-.78,1.66c-.25.55-.49,1.09-.73,1.64s-.5,1.12-.74,1.69l-.69,1.66c-.24.57-.47,1.13-.7,1.7l-.66,1.68c-.22.58-.44,1.15-.65,1.73l-.62,1.7c-.2.58-.41,1.16-.61,1.75s-.39,1.14-.58,1.72l-.57,1.76-.54,1.74c-.18.59-.35,1.19-.53,1.79s-.33,1.16-.49,1.75-.33,1.2-.49,1.8l-.45,1.78c-.15.6-.3,1.21-.44,1.82s-.28,1.19-.41,1.78-.27,1.23-.4,1.84l-.36,1.81-.36,1.85c-.11.61-.21,1.22-.32,1.82s-.21,1.25-.31,1.87-.19,1.22-.27,1.84-.18,1.25-.27,1.88-.15,1.23-.23,1.85-.15,1.27-.22,1.9l-.18,1.87c-.06.63-.12,1.27-.17,1.9s-.1,1.26-.14,1.89-.09,1.28-.12,1.92-.07,1.26-.1,1.89,0,1.29-.07,1.94,0,1.27,0,1.9,0,1.28,0,1.93c0,.29,0,.59,0,.88s0,.77,0,1.16l0,1.69c0,.84,0,1.67.07,2.5l0,1A150,150,0,0,0,444,591.49h.5c1.1,0,2.19,0,3.29,0l1.07,0,2.2-.07,1.27-.07,2-.11,1.32-.1c.65,0,1.29-.09,1.94-.15l1.33-.12,1.92-.2,1.3-.14,2-.25,1.18-.16c.77-.1,1.53-.22,2.3-.34l.87-.13,3.15-.54.62-.12,2.49-.49c.38-.07.75-.16,1.12-.24l2-.43,1.23-.29c.62-.14,1.24-.29,1.85-.45l1.26-.32,1.82-.48,1.25-.35,1.83-.53,1.19-.35,1.94-.61,1.05-.34c.8-.26,1.6-.53,2.39-.81l.57-.19c1-.34,2-.7,2.93-1.06l.83-.33c.69-.26,1.38-.52,2.07-.8l1.08-.44,1.8-.74,1.15-.5,1.7-.75,1.17-.53,1.68-.78,1.14-.55c.57-.27,1.13-.56,1.7-.84l1.07-.53,1.84-1,.9-.47c.9-.48,1.8-1,2.69-1.48l.11-.06c.86-.48,1.71-1,2.56-1.48l.87-.52,1.76-1.07,1-.64,1.58-1,1.06-.7c.51-.33,1-.67,1.51-1l1-.72L531,564l1-.72,1.56-1.14.91-.68,1.78-1.36.65-.5c.81-.63,1.6-1.27,2.39-1.91l.52-.43,1.83-1.53.84-.73,1.47-1.28.91-.82,1.37-1.24.92-.86,1.32-1.26.9-.88,1.32-1.3.85-.87c.47-.47.92-.95,1.38-1.42l.75-.78c.57-.62,1.15-1.24,1.71-1.86l.36-.39c.68-.75,1.35-1.51,2-2.28l.6-.7c.47-.54.93-1.09,1.38-1.63l.74-.9c.4-.49.81-1,1.2-1.48.26-.33.52-.65.77-1,.38-.48.76-1,1.13-1.45.26-.33.51-.67.76-1l1.1-1.47.74-1,1.09-1.53c.22-.33.45-.65.68-1,.4-.57.79-1.15,1.17-1.73l.55-.81c.56-.85,1.12-1.71,1.67-2.57l.11-.2c.51-.8,1-1.6,1.5-2.41l.53-.91c.35-.58.69-1.16,1-1.75l.6-1,.91-1.64c.21-.37.41-.74.61-1.11l.86-1.63.58-1.13c.29-.55.56-1.11.84-1.66l.55-1.12.84-1.76.48-1c.32-.69.63-1.39.94-2.09l.33-.74c.41-.94.82-1.9,1.21-2.85l.27-.67c.3-.74.59-1.48.88-2.22l.4-1.06.69-1.86.42-1.18A148.87,148.87,0,0,0,592.32,467c0-.17.07-.33.09-.5h-9.76a35.33,35.33,0,0,0-19.3,20.87l-.39,1.09a149.18,149.18,0,0,0,5.91-22H444.62a.12.12,0,0,1-.12-.12V416.62a.12.12,0,0,1,.12-.12H592.41a148.23,148.23,0,0,0-6.6-25.4c-.14-.38-.28-.75-.41-1.13Z" transform="translate(510 90)"/><path class="cls-1" d="M582.65,466.5H568.87a149.18,149.18,0,0,1-5.91,22l.39-1.09" transform="translate(510 90)"/><path class="cls-1" d="M712,444v22.5H829.42a15.22,15.22,0,0,1,9,2.93c2.39,1.74,4.81,4.14,4.58,6.87V807.87A33.13,33.13,0,0,1,809.87,841H712v59H919V444Z" transform="translate(510 90)"/><path class="cls-1" d="M843,807.87V476.3c.23-2.73-2.19-5.13-4.58-6.87a15.22,15.22,0,0,0-9-2.93H712V841h97.87A33.13,33.13,0,0,0,843,807.87Zm0-331.56q-.39,4.57-.89,9.12Q842.61,480.89,843,476.31Zm-1.26,12.13c-.23,2-.46,4.05-.73,6.06C841.28,492.49,841.51,490.46,841.74,488.44Zm-1.25,9.67c-.25,1.8-.5,3.6-.78,5.4C840,501.71,840.24,499.91,840.49,498.11Zm-1.42,9.23c-.28,1.71-.55,3.41-.86,5.11C838.52,510.75,838.79,509.05,839.07,507.34Zm-1.6,9.06c-.31,1.64-.62,3.29-1,4.92C836.85,519.69,837.16,518,837.47,516.4Zm-1.8,8.93c-.34,1.6-.68,3.2-1,4.8C835,528.53,835.33,526.93,835.67,525.33Zm-2,8.83c-.37,1.57-.74,3.14-1.13,4.7C832.94,537.3,833.31,535.73,833.68,534.16Zm-2.17,8.73c-.41,1.54-.81,3.09-1.23,4.63C830.7,546,831.1,544.43,831.51,542.89Zm-2.37,8.65c-.43,1.52-.86,3-1.31,4.55C828.28,554.58,828.71,553.06,829.14,551.54Zm-2.55,8.57c-.47,1.5-.93,3-1.41,4.48C825.66,563.1,826.12,561.61,826.59,560.11Zm-2.73,8.48c-.5,1.47-1,2.95-1.5,4.42C822.87,571.54,823.36,570.06,823.86,568.59ZM820.94,577c-.52,1.46-1.05,2.91-1.59,4.36C819.89,579.89,820.42,578.44,820.94,577Zm-3.09,8.3c-.55,1.44-1.11,2.88-1.68,4.31C816.74,588.16,817.3,586.72,817.85,585.28Zm-3.27,8.22q-.87,2.13-1.77,4.24Q813.71,595.63,814.58,593.5ZM712,738.83c1.21-1.09,2.42-2.17,3.62-3.27C714.46,736.66,713.25,737.74,712,738.83Zm6.45-5.94c1.16-1.09,2.33-2.18,3.48-3.29C720.82,730.71,719.65,731.8,718.49,732.89Zm6.32-6.07q1.68-1.65,3.35-3.31Q726.49,725.18,724.81,726.82Zm6.16-6.19c1.08-1.11,2.17-2.22,3.24-3.34C733.14,718.41,732.05,719.52,731,720.63Zm6-6.3c1-1.13,2.11-2.26,3.15-3.4C739.09,712.07,738,713.2,737,714.33Zm5.87-6.43c1-1.15,2-2.29,3.06-3.45C744.9,705.61,743.88,706.75,742.85,707.9Zm5.73-6.56q1.5-1.74,3-3.49Q750.08,699.61,748.58,701.34Zm5.59-6.68c1-1.18,1.93-2.35,2.88-3.54C756.1,692.31,755.14,693.48,754.17,694.66Zm5.45-6.8c.93-1.19,1.87-2.39,2.79-3.59C761.49,685.47,760.55,686.67,759.62,687.86Zm5.29-6.91q1.37-1.82,2.71-3.65Q766.27,679.13,764.91,681Zm5.14-7c.88-1.24,1.76-2.47,2.63-3.71C771.81,671.46,770.93,672.69,770.05,673.93Zm5-7.15q1.29-1.87,2.54-3.76Q776.34,664.91,775,666.78Zm4.84-7.26q1.25-1.89,2.46-3.81Q781.13,657.63,779.88,659.52Zm4.69-7.36c.79-1.28,1.59-2.57,2.37-3.87C786.16,649.59,785.36,650.88,784.57,652.16Zm4.52-7.47c.77-1.3,1.54-2.61,2.29-3.92C790.63,642.08,789.86,643.39,789.09,644.69Zm4.37-7.57q1.11-2,2.2-4Q794.57,635.14,793.46,637.12Zm4.2-7.69c.72-1.33,1.42-2.67,2.12-4C799.08,626.76,798.38,628.1,797.66,629.43Zm4-7.77c.69-1.36,1.36-2.72,2-4.09C803.06,618.94,802.39,620.3,801.7,621.66Zm3.87-7.88q1-2.06,1.95-4.14Q806.56,611.72,805.57,613.78Zm5.57-12.16c-.62,1.4-1.23,2.8-1.86,4.19C809.91,604.42,810.52,603,811.14,601.62Z" transform="translate(510 90)"/><path class="cls-3" d="M703.5,840.5v-374h123a16,16,0,0,1,16,16V822.13a18.39,18.39,0,0,1-18.37,18.37Z" transform="translate(510 90)"/><path class="cls-3" d="M826.5,467A15.51,15.51,0,0,1,842,482.5V822.13A17.89,17.89,0,0,1,824.13,840H704V467H826.5m0-1H703V841H824.13A18.87,18.87,0,0,0,843,822.13V482.5A16.5,16.5,0,0,0,826.5,466Z" transform="translate(510 90)"/></svg>